# xmcd
#
# Track frame offsets: 
#        182
#        26205
#        44715
#        62475
#        76692
#        96285
#        113757
#        138642
#        151797
#        170625
#
# Disc length: 2513 seconds
#
# Revision: 3
# Processed by: cddbd v1.5.2PL0 Copyright (c) Steve Scherf et al.
# Submitted via: ExactAudioCopyFreeDBPlugin 1.0
#
DISCID=8009cf0a
DTITLE=Con Funk Shun - Spirit Of Love
DYEAR=1980
DGENRE=Funk
TTITLE0=Got To Be Enough
TTITLE1=By Your Side
TTITLE2=Curtain Call
TTITLE3=Early Morning Sunshine
TTITLE4=Spirit Of Love
TTITLE5=Happy Face
TTITLE6=All Up To You
TTITLE7=Juicy
TTITLE8=Honey Wild
TTITLE9=Lovestruck 1980
EXTD=Year:1980.\nReview:\nContinuing their association with veteran pr
EXTD=oducer Skip Scarborough and riding high on the success of their p
EXTD=rior albums, Con Funk Shun maintain that stride on this album wit
EXTD=h the funk-dance track "Got to Be Enough." With an energized intr
EXTD=oduction incorporating their trademark horns, Michael Cooper stor
EXTD=ms through the verses, while Felton Pilate accentuates the chorus
EXTD=with his high-flying falsetto. Penned by Cooper and Pilate, the 
EXTD=single peaked on the Billboard R&B charts at number eight after a
EXTD=n 18-week run. The credible yet less popular dance track "Happy F
EXTD=ace" slipped into the Billboard R&B Top 100 Singles chart at numb
EXTD=er 87. On a more serene note, they followed that single up with "
EXTD=By Your Side," a dulcet, easy-flowing composition led by Pilate's
EXTD=consoling vocals, peaking at number 27 on the Billboard R&B char
EXTD=ts. "All Up to You," a momentum-building song, and "Honey Wild" d
EXTD=id not grace the charts, although they are two splendid ballads. 
EXTD=Both songs are complemented by Pilate's vocal creativity. This al
EXTD=bum exceeded sales of 500,000. (Craig Lytle - All Music Guide).
EXTT0=
EXTT1=
EXTT2=
EXTT3=
EXTT4=
EXTT5=
EXTT6=
EXTT7=
EXTT8=
EXTT9=
PLAYORDER=
